<svg xmlns="http://www.w3.org/2000/svg" viewBox="0 0 200 170" width="200" height="170">
  <circle cx="108" cy="82" r="76" fill="#D3F0E4"/>
  <ellipse cx="100" cy="150" rx="92" ry="14" fill="#7BC96F"/>
  <ellipse cx="100" cy="154" rx="84" ry="10" fill="#5DB75A"/>
  <rect x="152" y="100" width="7" height="46" rx="3" fill="#8A5A36"/>
  <circle cx="155" cy="88" r="24" fill="#4FB067"/>
  <circle cx="141" cy="102" r="16" fill="#62C27A"/>
  <circle cx="170" cy="100" r="15" fill="#43A25D"/>
  <rect x="48" y="78" width="86" height="68" rx="4" fill="#FFF3DA"/>
  <rect x="48" y="132" width="86" height="14" fill="#F2DDB4"/>
  <rect x="104" y="52" width="14" height="28" fill="#B9553A"/>
  <rect x="101" y="49" width="20" height="6" rx="2" fill="#9E452E"/>
  <polygon points="38,84 91,38 144,84" fill="#E9532F"/>
  <polygon points="38,84 91,38 144,84 136,84 91,46 46,84" fill="#C13F1F" opacity="0.35"/>
  <circle cx="91" cy="68" r="8" fill="#FFF3DA"/>
  <circle cx="91" cy="68" r="5" fill="#9CD6F2"/>
  <rect x="58" y="94" width="24" height="24" rx="3" fill="#7A4A2B"/>
  <rect x="61" y="97" width="18" height="18" rx="2" fill="#A9DDF5"/>
  <line x1="70" y1="97" x2="70" y2="115" stroke="#7A4A2B" stroke-width="2"/>
  <line x1="61" y1="106" x2="79" y2="106" stroke="#7A4A2B" stroke-width="2"/>
  <rect x="98" y="94" width="24" height="24" rx="3" fill="#7A4A2B"/>
  <rect x="101" y="97" width="18" height="18" rx="2" fill="#A9DDF5"/>
  <line x1="110" y1="97" x2="110" y2="115" stroke="#7A4A2B" stroke-width="2"/>
  <line x1="101" y1="106" x2="119" y2="106" stroke="#7A4A2B" stroke-width="2"/>
  <rect x="80" y="112" width="22" height="34" rx="3" fill="#B4673A"/>
  <circle cx="97" cy="130" r="1.8" fill="#FFE29A"/>
  <circle cx="44" cy="140" r="12" fill="#4FB067"/>
  <circle cx="58" cy="143" r="10" fill="#62C27A"/>
  <circle cx="132" cy="142" r="10" fill="#4FB067"/>
  <circle cx="36" cy="136" r="3" fill="#FF8FB1"/>
  <circle cx="46" cy="132" r="3" fill="#FFD23F"/>
  <circle cx="54" cy="140" r="3" fill="#FF8FB1"/>
  <circle cx="132" cy="138" r="3" fill="#FFD23F"/>
  <circle cx="138" cy="144" r="3" fill="#FF8FB1"/>
  <circle cx="18" cy="60" r="3" fill="#FFFFFF" opacity="0.9"/>
  <circle cx="186" cy="40" r="4" fill="#FFFFFF" opacity="0.9"/>
</svg>
